<mxfile host="65bd71144e">
    <diagram id="vT99LtTNEYBTbsqwjrP1" name="Page-1">
        <mxGraphModel dx="1839" dy="947" grid="1" gridSize="10" guides="1" tooltips="1" connect="1" arrows="1" fold="1" page="1" pageScale="1" pageWidth="850" pageHeight="1100" math="0" shadow="0">
            <root>
                <mxCell id="0"/>
                <mxCell id="1" parent="0"/>
                <mxCell id="2" value="&lt;font style=&quot;font-size: 14px;&quot;&gt;gxr-evb-jx101-cm3-$subsys[.json]&lt;/font&gt;" style="swimlane;childLayout=stackLayout;resizeParent=1;resizeParentMax=0;horizontal=0;startSize=20;horizontalStack=0;html=1;" vertex="1" parent="1">
                    <mxGeometry x="70" y="120" width="110" height="240" as="geometry">
                        <mxRectangle x="70" y="120" width="40" height="260" as="alternateBounds"/>
                    </mxGeometry>
                </mxCell>
                <mxCell id="3" value="platform" style="swimlane;startSize=20;horizontal=0;html=1;fillColor=#66FF66;" vertex="1" parent="2">
                    <mxGeometry x="20" width="90" height="80" as="geometry"/>
                </mxCell>
                <mxCell id="4" value="camera" style="swimlane;startSize=20;horizontal=0;html=1;fillColor=#CC99FF;" vertex="1" parent="2">
                    <mxGeometry x="20" y="80" width="90" height="80" as="geometry"/>
                </mxCell>
                <mxCell id="5" value="&lt;span style=&quot;background-color: rgb(255, 153, 255);&quot;&gt;display&lt;/span&gt;" style="swimlane;startSize=20;horizontal=0;html=1;fillColor=#FF99FF;" vertex="1" parent="2">
                    <mxGeometry x="20" y="160" width="90" height="80" as="geometry"/>
                </mxCell>
                <mxCell id="11" value="gxr-evb-jx101-cm3-$subsys[.bin]" style="swimlane;childLayout=stackLayout;resizeParent=1;resizeParentMax=0;horizontal=0;startSize=20;horizontalStack=0;html=1;" vertex="1" parent="1">
                    <mxGeometry x="260" y="121" width="110" height="240" as="geometry"/>
                </mxCell>
                <mxCell id="12" value="platform" style="swimlane;startSize=20;horizontal=0;html=1;fillColor=#80FF00;" vertex="1" parent="11">
                    <mxGeometry x="20" width="90" height="80" as="geometry"/>
                </mxCell>
                <mxCell id="13" value="camera" style="swimlane;startSize=20;horizontal=0;html=1;fillColor=#CC99FF;" vertex="1" parent="11">
                    <mxGeometry x="20" y="80" width="90" height="80" as="geometry"/>
                </mxCell>
                <mxCell id="14" value="display" style="swimlane;startSize=20;horizontal=0;html=1;fillColor=#FF99FF;" vertex="1" parent="11">
                    <mxGeometry x="20" y="160" width="90" height="80" as="geometry"/>
                </mxCell>
                <object label="json2bin&lt;br&gt;&amp;amp; pack img" id="15">
                    <mxCell style="shape=singleArrow;whiteSpace=wrap;html=1;fontSize=10;" vertex="1" parent="1">
                        <mxGeometry x="190" y="190" width="60" height="81" as="geometry"/>
                    </mxCell>
                </object>
                <object label="loader load to" id="16">
                    <mxCell style="shape=singleArrow;whiteSpace=wrap;html=1;fontSize=10;" vertex="1" parent="1">
                        <mxGeometry x="400" y="110" width="70" height="60" as="geometry"/>
                    </mxCell>
                </object>
                <object label="loader parse &amp;amp; write desc[]" id="17">
                    <mxCell style="shape=singleArrow;whiteSpace=wrap;html=1;fontSize=10;" vertex="1" parent="1">
                        <mxGeometry x="400" y="270" width="70" height="81" as="geometry"/>
                    </mxCell>
                </object>
                <mxCell id="18" value="Memroy of cm3-jx101's view" style="swimlane;fontSize=14;fillColor=#FFFFFF;" vertex="1" parent="1">
                    <mxGeometry x="470" y="103" width="260" height="750" as="geometry"/>
                </mxCell>
                <mxCell id="7" value="&lt;font style=&quot;font-size: 10px;&quot;&gt;&amp;amp;DATA_PATCH_SOURCE_TLB_LOC of cm3.jx101&lt;/font&gt;" style="swimlane;fontStyle=1;childLayout=stackLayout;horizontal=1;startSize=26;fillColor=none;horizontalStack=0;resizeParent=1;resizeParentMax=0;resizeLast=0;collapsible=1;marginBottom=0;html=1;" vertex="1" parent="18">
                    <mxGeometry x="10" y="200" width="240" height="104" as="geometry"/>
                </mxCell>
                <mxCell id="8" value="[.0]=@&lt;span style=&quot;text-align: center; background-color: rgb(255, 255, 255);&quot;&gt;gxr-evb-jx101-cm3::&lt;/span&gt;&lt;b&gt;&lt;font color=&quot;#66ff66&quot;&gt;platform.bin&lt;/font&gt;&lt;/b&gt;" style="text;strokeColor=none;fillColor=default;align=left;verticalAlign=top;spacingLeft=4;spacingRight=4;overflow=hidden;rotatable=0;points=[[0,0.5],[1,0.5]];portConstraint=eastwest;whiteSpace=wrap;html=1;" vertex="1" parent="7">
                    <mxGeometry y="26" width="240" height="26" as="geometry"/>
                </mxCell>
                <mxCell id="9" value="[.1]=@&lt;span style=&quot;border-color: var(--border-color); text-align: center; background-color: rgb(255, 255, 255);&quot;&gt;gxr-evb-jx101-cm3::&lt;/span&gt;&lt;b&gt;&lt;font color=&quot;#cc99ff&quot;&gt;camera.bin&lt;/font&gt;&lt;/b&gt;" style="text;strokeColor=default;fillColor=none;align=left;verticalAlign=top;spacingLeft=4;spacingRight=4;overflow=hidden;rotatable=0;points=[[0,0.5],[1,0.5]];portConstraint=eastwest;whiteSpace=wrap;html=1;" vertex="1" parent="7">
                    <mxGeometry y="52" width="240" height="26" as="geometry"/>
                </mxCell>
                <mxCell id="10" value="[.2]=@&lt;span style=&quot;border-color: var(--border-color); text-align: center; background-color: rgb(255, 255, 255);&quot;&gt;gxr-evb-jx101-cm3::&lt;/span&gt;&lt;b&gt;&lt;font color=&quot;#ff99ff&quot;&gt;display.bin&lt;/font&gt;&lt;/b&gt;" style="text;strokeColor=none;fillColor=none;align=left;verticalAlign=top;spacingLeft=4;spacingRight=4;overflow=hidden;rotatable=0;points=[[0,0.5],[1,0.5]];portConstraint=eastwest;whiteSpace=wrap;html=1;" vertex="1" parent="7">
                    <mxGeometry y="78" width="240" height="26" as="geometry"/>
                </mxCell>
                <mxCell id="26" value="gxr-evb-jx101-cm3.bin.img" style="swimlane;fontSize=12;fillColor=#FFFFFF;fontStyle=1" vertex="1" parent="18">
                    <mxGeometry x="20" y="26" width="220" height="155" as="geometry"/>
                </mxCell>
                <mxCell id="31" value="platform" style="swimlane;startSize=20;horizontal=0;html=1;fillColor=#80FF00;rotation=90;" vertex="1" parent="26">
                    <mxGeometry x="90" y="-61" width="40" height="210" as="geometry"/>
                </mxCell>
                <mxCell id="32" value="camer" style="swimlane;startSize=20;horizontal=0;html=1;fillColor=#CC99FF;rotation=90;" vertex="1" parent="26">
                    <mxGeometry x="90" y="-20" width="40" height="210" as="geometry"/>
                </mxCell>
                <mxCell id="33" value="display" style="swimlane;startSize=20;horizontal=0;html=1;fillColor=#FF99FF;rotation=90;" vertex="1" parent="26">
                    <mxGeometry x="90" y="21" width="40" height="210" as="geometry"/>
                </mxCell>
                <mxCell id="34" value="" style="endArrow=classic;html=1;fontSize=12;entryX=0.25;entryY=0;entryDx=0;entryDy=0;dashed=1;" edge="1" parent="18" target="31">
                    <mxGeometry width="50" height="50" relative="1" as="geometry">
                        <mxPoint x="250" y="239" as="sourcePoint"/>
                        <mxPoint x="-20" y="230" as="targetPoint"/>
                        <Array as="points">
                            <mxPoint x="290" y="90"/>
                        </Array>
                    </mxGeometry>
                </mxCell>
                <mxCell id="37" value="gxr-evb-jx101-cm3.elf" style="swimlane;fontSize=12;fillColor=#FFFFFF;" vertex="1" parent="18">
                    <mxGeometry x="20" y="417" width="220" height="260" as="geometry"/>
                </mxCell>
                <mxCell id="38" value=".text" style="swimlane;startSize=20;horizontal=0;html=1;fillColor=#e3c800;rotation=90;fontColor=#000000;strokeColor=#B09500;" vertex="1" parent="37">
                    <mxGeometry x="89.5" y="-61.5" width="40" height="210" as="geometry"/>
                </mxCell>
                <mxCell id="43" value="&lt;font style=&quot;font-size: 6px;&quot;&gt;.boot: -&amp;gt; startup&lt;font color=&quot;#ffb399&quot;&gt;... ; data_patch(); ...&lt;/font&gt;&lt;/font&gt;" style="text;html=1;align=center;verticalAlign=middle;resizable=0;points=[];autosize=1;strokeColor=none;fillColor=none;fontSize=12;fontColor=#cc99ff;" vertex="1" parent="38">
                    <mxGeometry x="-85" y="94" width="120" height="30" as="geometry"/>
                </mxCell>
                <mxCell id="39" value=".data + .bss" style="swimlane;startSize=20;horizontal=0;html=1;fillColor=#b1ddf0;rotation=90;strokeColor=#10739e;" vertex="1" parent="37">
                    <mxGeometry x="90" y="-20" width="40" height="210" as="geometry"/>
                </mxCell>
                <mxCell id="40" value=".heap" style="swimlane;startSize=20;horizontal=0;html=1;fillColor=#f5f5f5;rotation=90;strokeColor=#666666;gradientColor=#b3b3b3;" vertex="1" parent="37">
                    <mxGeometry x="62.5" y="48.5" width="95" height="210" as="geometry"/>
                </mxCell>
                <mxCell id="41" value=".stack" style="swimlane;startSize=20;horizontal=0;html=1;fillColor=#f8cecc;rotation=90;strokeColor=#b85450;gradientColor=#ea6b66;" vertex="1" parent="37">
                    <mxGeometry x="89.5" y="127" width="40" height="210" as="geometry"/>
                </mxCell>
                <mxCell id="35" value="" style="endArrow=classic;html=1;fontSize=12;entryX=0.25;entryY=0;entryDx=0;entryDy=0;dashed=1;exitX=1;exitY=0.5;exitDx=0;exitDy=0;" edge="1" parent="1" source="9">
                    <mxGeometry width="50" height="50" relative="1" as="geometry">
                        <mxPoint x="720" y="375.9999999999999" as="sourcePoint"/>
                        <mxPoint x="705" y="197" as="targetPoint"/>
                        <Array as="points">
                            <mxPoint x="760" y="250"/>
                        </Array>
                    </mxGeometry>
                </mxCell>
                <mxCell id="36" value="" style="endArrow=classic;html=1;fontSize=12;entryX=0.25;entryY=0;entryDx=0;entryDy=0;dashed=1;exitX=1;exitY=0.5;exitDx=0;exitDy=0;" edge="1" parent="1" source="10">
                    <mxGeometry width="50" height="50" relative="1" as="geometry">
                        <mxPoint x="720" y="406" as="sourcePoint"/>
                        <mxPoint x="705" y="238" as="targetPoint"/>
                        <Array as="points">
                            <mxPoint x="760" y="340"/>
                        </Array>
                    </mxGeometry>
                </mxCell>
                <mxCell id="64" value="&lt;font style=&quot;font-size: 8px;&quot;&gt;.once.data.dpa.$subsys_$module_cfg&lt;/font&gt;" style="swimlane;startSize=20;horizontal=0;html=1;fillColor=#E6E6E6;rotation=90;fontColor=#000000;strokeColor=#c3c3c3;" vertex="1" parent="1">
                    <mxGeometry x="313.5" y="540" width="50" height="200" as="geometry"/>
                </mxCell>
                <mxCell id="65" value="&lt;span style=&quot;font-size: 6px;&quot;&gt;.xxx = default-xxx; .yyy = default-yyy&lt;/span&gt;" style="text;html=1;align=center;verticalAlign=middle;resizable=0;points=[];autosize=1;strokeColor=none;fillColor=none;fontSize=12;fontColor=#cc99ff;" vertex="1" parent="64">
                    <mxGeometry x="-58.5" y="97" width="120" height="30" as="geometry"/>
                </mxCell>
                <mxCell id="74" value="&lt;b&gt;&lt;font style=&quot;font-size: 10px;&quot;&gt;jx101/cm3/Kconfig&lt;/font&gt;&lt;/b&gt;" style="swimlane;fontStyle=0;childLayout=stackLayout;horizontal=1;startSize=26;fillColor=none;horizontalStack=0;resizeParent=1;resizeParentMax=0;resizeLast=0;collapsible=1;marginBottom=0;html=1;labelBackgroundColor=#ffffff;strokeColor=#c3c3c3;fontSize=8;fontColor=#260449;" vertex="1" parent="1">
                    <mxGeometry x="313.5" y="380" width="110" height="104" as="geometry"/>
                </mxCell>
                <mxCell id="75" value="subsys-0=platform" style="text;strokeColor=default;fillColor=none;align=left;verticalAlign=top;spacingLeft=4;spacingRight=4;overflow=hidden;rotatable=0;points=[[0,0.5],[1,0.5]];portConstraint=eastwest;whiteSpace=wrap;html=1;labelBackgroundColor=#ffffff;fontSize=8;fontColor=#260449;" vertex="1" parent="74">
                    <mxGeometry y="26" width="110" height="26" as="geometry"/>
                </mxCell>
                <mxCell id="76" value="subsys-1=camera" style="text;strokeColor=default;fillColor=none;align=left;verticalAlign=top;spacingLeft=4;spacingRight=4;overflow=hidden;rotatable=0;points=[[0,0.5],[1,0.5]];portConstraint=eastwest;whiteSpace=wrap;html=1;labelBackgroundColor=#ffffff;fontSize=8;fontColor=#260449;" vertex="1" parent="74">
                    <mxGeometry y="52" width="110" height="26" as="geometry"/>
                </mxCell>
                <mxCell id="77" value="subsys-2=display" style="text;strokeColor=default;fillColor=none;align=left;verticalAlign=top;spacingLeft=4;spacingRight=4;overflow=hidden;rotatable=0;points=[[0,0.5],[1,0.5]];portConstraint=eastwest;whiteSpace=wrap;html=1;labelBackgroundColor=#ffffff;fontSize=8;fontColor=#260449;" vertex="1" parent="74">
                    <mxGeometry y="78" width="110" height="26" as="geometry"/>
                </mxCell>
                <mxCell id="44" value="&lt;font style=&quot;font-size: 8px;&quot;&gt;.once.text.dpa.$subsys_$module()&lt;/font&gt;" style="swimlane;startSize=20;horizontal=0;html=1;fillColor=#e3c800;rotation=90;fontColor=#000000;strokeColor=#B09500;" vertex="1" parent="1">
                    <mxGeometry x="320" y="600" width="43.5" height="200" as="geometry"/>
                </mxCell>
                <mxCell id="45" value="&lt;span style=&quot;font-size: 6px;&quot;&gt;module.xxx = patch-xxx; module.yyy = patch-&amp;gt;yyy;&lt;/span&gt;" style="text;html=1;align=center;verticalAlign=middle;resizable=0;points=[];autosize=1;strokeColor=none;fillColor=none;fontSize=12;fontColor=#cc99ff;" vertex="1" parent="44">
                    <mxGeometry x="-62.75" y="94.75" width="160" height="30" as="geometry"/>
                </mxCell>
                <mxCell id="78" value="platform" style="swimlane;fontStyle=0;childLayout=stackLayout;horizontal=1;startSize=26;fillColor=none;horizontalStack=0;resizeParent=1;resizeParentMax=0;resizeLast=0;collapsible=1;marginBottom=0;html=1;labelBackgroundColor=#ffffff;strokeColor=#c3c3c3;fontSize=8;fontColor=#260449;" vertex="1" parent="1">
                    <mxGeometry x="80" y="470" width="140" height="104" as="geometry"/>
                </mxCell>
                <mxCell id="79" value="struct { 。。。。} uart1" style="text;strokeColor=none;fillColor=none;align=left;verticalAlign=top;spacingLeft=4;spacingRight=4;overflow=hidden;rotatable=0;points=[[0,0.5],[1,0.5]];portConstraint=eastwest;whiteSpace=wrap;html=1;labelBackgroundColor=#ffffff;fontSize=8;fontColor=#260449;" vertex="1" parent="78">
                    <mxGeometry y="26" width="140" height="26" as="geometry"/>
                </mxCell>
                <mxCell id="80" value="struct { 。。。。。。} core_dump；" style="text;strokeColor=none;fillColor=none;align=left;verticalAlign=top;spacingLeft=4;spacingRight=4;overflow=hidden;rotatable=0;points=[[0,0.5],[1,0.5]];portConstraint=eastwest;whiteSpace=wrap;html=1;labelBackgroundColor=#ffffff;fontSize=8;fontColor=#260449;" vertex="1" parent="78">
                    <mxGeometry y="52" width="140" height="26" as="geometry"/>
                </mxCell>
                <mxCell id="81" value="struct 。。。。" style="text;strokeColor=none;fillColor=none;align=left;verticalAlign=top;spacingLeft=4;spacingRight=4;overflow=hidden;rotatable=0;points=[[0,0.5],[1,0.5]];portConstraint=eastwest;whiteSpace=wrap;html=1;labelBackgroundColor=#ffffff;fontSize=8;fontColor=#260449;" vertex="1" parent="78">
                    <mxGeometry y="78" width="140" height="26" as="geometry"/>
                </mxCell>
                <mxCell id="82" value="json&lt;br&gt;to&lt;br&gt;struct" style="shape=singleArrow;direction=south;whiteSpace=wrap;html=1;labelBackgroundColor=#ffffff;strokeColor=#c3c3c3;fontSize=8;fontColor=#260449;fillColor=none;" vertex="1" parent="1">
                    <mxGeometry x="100" y="380" width="70" height="60" as="geometry"/>
                </mxCell>
                <mxCell id="84" style="edgeStyle=none;html=1;exitX=1;exitY=0.5;exitDx=0;exitDy=0;entryX=0;entryY=0.5;entryDx=0;entryDy=0;dashed=1;fontSize=8;fontColor=#260449;" edge="1" parent="1" source="75" target="8">
                    <mxGeometry relative="1" as="geometry"/>
                </mxCell>
                <mxCell id="85" style="edgeStyle=none;html=1;exitX=1;exitY=0.5;exitDx=0;exitDy=0;entryX=0;entryY=0.5;entryDx=0;entryDy=0;dashed=1;fontSize=8;fontColor=#260449;" edge="1" parent="1" source="76" target="9">
                    <mxGeometry relative="1" as="geometry"/>
                </mxCell>
                <mxCell id="86" style="edgeStyle=none;html=1;exitX=1;exitY=0.5;exitDx=0;exitDy=0;entryX=0;entryY=0.5;entryDx=0;entryDy=0;dashed=1;fontSize=8;fontColor=#260449;" edge="1" parent="1" source="77" target="10">
                    <mxGeometry relative="1" as="geometry"/>
                </mxCell>
                <mxCell id="87" value="&lt;b&gt;&lt;font style=&quot;font-size: 12px;&quot;&gt;subsys&amp;lt;platform&amp;gt;.bin&lt;/font&gt;&lt;/b&gt;" style="swimlane;fontStyle=0;childLayout=stackLayout;horizontal=1;startSize=26;fillColor=none;horizontalStack=0;resizeParent=1;resizeParentMax=0;resizeLast=0;collapsible=1;marginBottom=0;html=1;labelBackgroundColor=#ffffff;strokeColor=#c3c3c3;fontSize=8;fontColor=#260449;" vertex="1" parent="1">
                    <mxGeometry x="220" width="190" height="110" as="geometry"/>
                </mxCell>
                <mxCell id="88" value=".magic[] = &quot;DPC4&quot;" style="text;strokeColor=#CCCCCC;fillColor=none;align=left;verticalAlign=top;spacingLeft=4;spacingRight=4;overflow=hidden;rotatable=0;points=[[0,0.5],[1,0.5]];portConstraint=eastwest;whiteSpace=wrap;html=1;labelBackgroundColor=#ffffff;fontSize=8;fontColor=#260449;" vertex="1" parent="87">
                    <mxGeometry y="26" width="190" height="24" as="geometry"/>
                </mxCell>
                <mxCell id="89" value=".header.name[] = &quot;platform&quot;" style="text;strokeColor=#CCCCCC;fillColor=none;align=left;verticalAlign=top;spacingLeft=4;spacingRight=4;overflow=hidden;rotatable=0;points=[[0,0.5],[1,0.5]];portConstraint=eastwest;whiteSpace=wrap;html=1;labelBackgroundColor=#ffffff;fontSize=8;fontColor=#260449;" vertex="1" parent="87">
                    <mxGeometry y="50" width="190" height="20" as="geometry"/>
                </mxCell>
                <mxCell id="90" value=".header.version = {update, major, subsys, product}" style="text;strokeColor=#CCCCCC;fillColor=none;align=left;verticalAlign=top;spacingLeft=4;spacingRight=4;overflow=hidden;rotatable=0;points=[[0,0.5],[1,0.5]];portConstraint=eastwest;whiteSpace=wrap;html=1;labelBackgroundColor=#ffffff;fontSize=8;fontColor=#260449;" vertex="1" parent="87">
                    <mxGeometry y="70" width="190" height="20" as="geometry"/>
                </mxCell>
                <mxCell id="91" value=".data[]" style="text;strokeColor=#CCCCCC;fillColor=none;align=left;verticalAlign=top;spacingLeft=4;spacingRight=4;overflow=hidden;rotatable=0;points=[[0,0.5],[1,0.5]];portConstraint=eastwest;whiteSpace=wrap;html=1;labelBackgroundColor=#ffffff;fontSize=8;fontColor=#260449;" vertex="1" parent="87">
                    <mxGeometry y="90" width="190" height="20" as="geometry"/>
                </mxCell>
                <object label="loader load &amp;amp; release_reset / jump()" id="92">
                    <mxCell style="shape=singleArrow;whiteSpace=wrap;html=1;fontSize=10;" vertex="1" parent="1">
                        <mxGeometry x="360" y="491" width="110" height="80" as="geometry"/>
                    </mxCell>
                </object>
            </root>
        </mxGraphModel>
    </diagram>
</mxfile>